<?xml version="1.0" encoding="utf-8"?>
<!-- Generator: Adobe Illustrator 16.0.0, SVG Export Plug-In . SVG Version: 6.00 Build 0)  -->
<!DOCTYPE svg PUBLIC "-//W3C//DTD SVG 1.1//EN" "http://www.w3.org/Graphics/SVG/1.1/DTD/svg11.dtd">
<svg version="1.1" id="Layer_1" xmlns="http://www.w3.org/2000/svg" xmlns:xlink="http://www.w3.org/1999/xlink" x="0px" y="0px"
	 width="250px" height="250px" viewBox="0 0 250 250" enable-background="new 0 0 250 250" xml:space="preserve">
<title>HTML5 Logo Badge</title>
<g display="none">
	<path display="inline" fill="#E34F26" d="M34.668,224.609L14.648,0h220.215l-20.02,224.609L124.512,250"/>
	<path display="inline" fill="#EF652A" d="M125,230.469l72.754-20.02l17.09-192.383H125"/>
	<path display="inline" fill="#EBEBEB" d="M125,101.563H88.379l-2.441-28.32H125V45.898h-0.488H55.664l0.488,7.324l6.836,76.172H125
		V101.563z M125,173.34h-0.488l-30.762-8.301l-1.953-21.973H77.148H64.453l3.418,43.457l56.641,15.625H125V173.34z"/>
	<path display="inline" fill="#FFFFFF" d="M124.512,101.563v27.832h34.18l-3.418,35.645l-30.762,8.301v28.809l56.641-15.625
		l0.488-4.883l6.348-72.754l0.977-7.324h-7.813H124.512z M124.512,45.898v17.09v10.254l0,0h66.895l0,0l0,0l0.488-5.859l1.465-14.16
		l0.488-7.324H124.512z"/>
</g>
<g>
	<polygon fill="#1572B6" points="34.844,225.481 14.741,0 235.642,0 215.517,225.447 125.056,250.525 	"/>
	<polygon fill="#33A9DC" points="125.191,231.355 198.287,211.092 215.485,18.437 125.191,18.437 	"/>
	<path fill="#FFFFFF" d="M54.75,42.439L54.593,70.34h113.566l-0.04,18.024H54.477l-0.082,27.9h113.568l-0.149,31.823l-42.828,15.158
		l-42.613-15.158l0.033-13.8H54.504l-0.128,33.483l70.488,25.112l70.754-25.112l0.237-50.373l0.072-10.105l0.29-64.852L54.75,42.439
		L54.75,42.439z"/>
</g>
</svg>
