<?xml version="1.0" standalone="no"?>
<!DOCTYPE svg PUBLIC "-//W3C//DTD SVG 20010904//EN"
 "http://www.w3.org/TR/2001/REC-SVG-20010904/DTD/svg10.dtd">
<svg version="1.0" xmlns="http://www.w3.org/2000/svg"
 width="89.000000pt" height="89.000000pt" viewBox="0 0 89.000000 89.000000"
 preserveAspectRatio="xMidYMid meet">
<metadata>
Created by potrace 1.11, written by Peter Selinger 2001-2013
</metadata>
<g transform="translate(0.000000,89.000000) scale(0.100000,-0.100000)"
fill="#000000" stroke="none">
<path d="M403 880 c-27 -11 -63 -66 -63 -96 0 -12 11 -38 25 -58 14 -20 25
-38 25 -40 0 -2 -23 -11 -52 -21 -145 -47 -229 -160 -236 -315 -3 -74 -1 -93
21 -142 32 -73 104 -150 170 -183 44 -22 64 -25 152 -25 90 0 107 3 155 27 66
33 126 93 160 159 20 39 26 67 28 139 3 79 1 98 -21 146 -42 96 -130 174 -224
199 -24 6 -43 13 -43 16 0 4 11 19 25 36 37 44 34 91 -9 134 -35 35 -68 42
-113 24z m87 -50 c19 -19 27 -60 14 -73 -4 -3 -18 1 -31 10 -23 16 -28 16 -53
1 -16 -9 -31 -14 -34 -10 -13 12 -5 47 16 69 26 28 61 30 88 3z"/>
</g>
</svg>
